<mxfile host="app.diagrams.net" agent="Mozilla/5.0 (Windows NT 10.0; Win64; x64) AppleWebKit/537.36 (KHTML, like Gecko) Chrome/138.0.0.0 Safari/537.36 OPR/122.0.0.0 (Edition std-2)" version="28.2.7">
  <diagram name="PÃ¡gina-1" id="uX9shmX5wNB9xqoOuZO5">
    <mxGraphModel dx="1108" dy="1809" grid="1" gridSize="10" guides="1" tooltips="1" connect="1" arrows="1" fold="1" page="1" pageScale="1" pageWidth="827" pageHeight="1169" math="0" shadow="0">
      <root>
        <mxCell id="0" />
        <mxCell id="1" parent="0" />
        <mxCell id="mTvKbT3Emb74TS9IKlDz-28" style="edgeStyle=none;curved=1;rounded=0;orthogonalLoop=1;jettySize=auto;html=1;exitX=0.5;exitY=1;exitDx=0;exitDy=0;entryX=0.5;entryY=0;entryDx=0;entryDy=0;fontSize=12;startSize=8;endSize=8;" edge="1" parent="1" source="mTvKbT3Emb74TS9IKlDz-29" target="mTvKbT3Emb74TS9IKlDz-32">
          <mxGeometry relative="1" as="geometry" />
        </mxCell>
        <mxCell id="mTvKbT3Emb74TS9IKlDz-29" value="" style="rounded=0;whiteSpace=wrap;html=1;" vertex="1" parent="1">
          <mxGeometry x="528.0000271267361" y="-166.4444308810764" width="200" height="60" as="geometry" />
        </mxCell>
        <mxCell id="mTvKbT3Emb74TS9IKlDz-30" value="EXECUTE" style="text;html=1;align=center;verticalAlign=middle;whiteSpace=wrap;rounded=0;" vertex="1" parent="1">
          <mxGeometry x="598.0000271267361" y="-151.4444308810764" width="60" height="30" as="geometry" />
        </mxCell>
        <mxCell id="mTvKbT3Emb74TS9IKlDz-31" style="edgeStyle=none;curved=1;rounded=0;orthogonalLoop=1;jettySize=auto;html=1;exitX=0.5;exitY=1;exitDx=0;exitDy=0;entryX=0.5;entryY=0;entryDx=0;entryDy=0;fontSize=12;startSize=8;endSize=8;" edge="1" parent="1" source="mTvKbT3Emb74TS9IKlDz-32" target="mTvKbT3Emb74TS9IKlDz-35">
          <mxGeometry relative="1" as="geometry" />
        </mxCell>
        <mxCell id="mTvKbT3Emb74TS9IKlDz-32" value="" style="rounded=0;whiteSpace=wrap;html=1;" vertex="1" parent="1">
          <mxGeometry x="528.0000271267361" y="-76.44443088107641" width="200" height="60" as="geometry" />
        </mxCell>
        <mxCell id="mTvKbT3Emb74TS9IKlDz-33" value="WAIT" style="text;html=1;align=center;verticalAlign=middle;whiteSpace=wrap;rounded=0;" vertex="1" parent="1">
          <mxGeometry x="598.0000271267361" y="-61.444430881076414" width="60" height="30" as="geometry" />
        </mxCell>
        <mxCell id="mTvKbT3Emb74TS9IKlDz-34" style="edgeStyle=none;curved=0;rounded=0;orthogonalLoop=1;jettySize=auto;html=1;entryX=1;entryY=0.5;entryDx=0;entryDy=0;fontSize=12;startSize=8;endSize=8;exitX=1;exitY=0.5;exitDx=0;exitDy=0;" edge="1" parent="1" source="mTvKbT3Emb74TS9IKlDz-35" target="mTvKbT3Emb74TS9IKlDz-32">
          <mxGeometry relative="1" as="geometry">
            <mxPoint x="698.0000271267361" y="23.555569118923586" as="sourcePoint" />
            <mxPoint x="788.0000271267361" y="-141.4444308810763" as="targetPoint" />
            <Array as="points">
              <mxPoint x="828.0000271267361" y="48.555569118923586" />
              <mxPoint x="828.0000271267361" y="-46.444430881076414" />
            </Array>
          </mxGeometry>
        </mxCell>
        <mxCell id="mTvKbT3Emb74TS9IKlDz-35" value="" style="rhombus;whiteSpace=wrap;html=1;" vertex="1" parent="1">
          <mxGeometry x="578.0000271267361" y="23.555569118923586" width="100" height="50" as="geometry" />
        </mxCell>
        <mxCell id="mTvKbT3Emb74TS9IKlDz-36" style="edgeStyle=orthogonalEdgeStyle;rounded=0;orthogonalLoop=1;jettySize=auto;html=1;exitX=0.5;exitY=1;exitDx=0;exitDy=0;entryX=0.5;entryY=0;entryDx=0;entryDy=0;" edge="1" parent="1" source="mTvKbT3Emb74TS9IKlDz-37" target="mTvKbT3Emb74TS9IKlDz-51">
          <mxGeometry relative="1" as="geometry" />
        </mxCell>
        <mxCell id="mTvKbT3Emb74TS9IKlDz-37" value="" style="rounded=0;whiteSpace=wrap;html=1;" vertex="1" parent="1">
          <mxGeometry x="528.0000271267361" y="-316.4444308810764" width="200" height="60" as="geometry" />
        </mxCell>
        <mxCell id="mTvKbT3Emb74TS9IKlDz-38" value="IDLE" style="text;html=1;align=center;verticalAlign=middle;whiteSpace=wrap;rounded=0;" vertex="1" parent="1">
          <mxGeometry x="598.0000271267361" y="-301.4444308810764" width="60" height="30" as="geometry" />
        </mxCell>
        <mxCell id="mTvKbT3Emb74TS9IKlDz-39" value="millis-tS &amp;gt;= wT" style="text;html=1;align=center;verticalAlign=middle;whiteSpace=wrap;rounded=0;" vertex="1" parent="1">
          <mxGeometry x="598.0000271267361" y="33.555569118923586" width="60" height="30" as="geometry" />
        </mxCell>
        <mxCell id="mTvKbT3Emb74TS9IKlDz-40" value="0" style="text;html=1;align=center;verticalAlign=middle;whiteSpace=wrap;rounded=0;" vertex="1" parent="1">
          <mxGeometry x="638.0000271267361" y="53.555569118923586" width="60" height="30" as="geometry" />
        </mxCell>
        <mxCell id="mTvKbT3Emb74TS9IKlDz-41" value="1" style="text;html=1;align=center;verticalAlign=middle;whiteSpace=wrap;rounded=0;" vertex="1" parent="1">
          <mxGeometry x="548.0000271267361" y="43.555569118923586" width="60" height="30" as="geometry" />
        </mxCell>
        <mxCell id="mTvKbT3Emb74TS9IKlDz-42" style="edgeStyle=orthogonalEdgeStyle;rounded=0;orthogonalLoop=1;jettySize=auto;html=1;exitX=0;exitY=0.5;exitDx=0;exitDy=0;entryX=0.5;entryY=0;entryDx=0;entryDy=0;" edge="1" parent="1" source="mTvKbT3Emb74TS9IKlDz-44" target="mTvKbT3Emb74TS9IKlDz-37">
          <mxGeometry relative="1" as="geometry">
            <mxPoint x="545.0000271267361" y="-319.4444308810764" as="targetPoint" />
            <Array as="points">
              <mxPoint x="428.0000271267361" y="48.555569118923586" />
              <mxPoint x="428.0000271267361" y="-356.4444308810764" />
              <mxPoint x="628.0000271267361" y="-356.4444308810764" />
            </Array>
          </mxGeometry>
        </mxCell>
        <mxCell id="mTvKbT3Emb74TS9IKlDz-43" style="edgeStyle=none;curved=0;rounded=0;orthogonalLoop=1;jettySize=auto;html=1;exitX=0.5;exitY=0;exitDx=0;exitDy=0;entryX=0;entryY=0.5;entryDx=0;entryDy=0;fontSize=12;startSize=8;endSize=8;" edge="1" parent="1" source="mTvKbT3Emb74TS9IKlDz-44" target="mTvKbT3Emb74TS9IKlDz-29">
          <mxGeometry relative="1" as="geometry">
            <Array as="points">
              <mxPoint x="498.0000271267361" y="-136.4444308810764" />
            </Array>
          </mxGeometry>
        </mxCell>
        <mxCell id="mTvKbT3Emb74TS9IKlDz-44" value="" style="rhombus;whiteSpace=wrap;html=1;" vertex="1" parent="1">
          <mxGeometry x="448.0000271267361" y="23.555569118923586" width="100" height="50" as="geometry" />
        </mxCell>
        <mxCell id="mTvKbT3Emb74TS9IKlDz-45" value="working" style="text;html=1;align=center;verticalAlign=middle;whiteSpace=wrap;rounded=0;" vertex="1" parent="1">
          <mxGeometry x="468.0000271267361" y="33.555569118923586" width="60" height="30" as="geometry" />
        </mxCell>
        <mxCell id="mTvKbT3Emb74TS9IKlDz-46" value="1&lt;div&gt;&lt;br&gt;&lt;/div&gt;" style="text;html=1;align=center;verticalAlign=middle;whiteSpace=wrap;rounded=0;" vertex="1" parent="1">
          <mxGeometry x="458.0000271267361" y="3.555569118923586" width="60" height="30" as="geometry" />
        </mxCell>
        <mxCell id="mTvKbT3Emb74TS9IKlDz-47" value="0" style="text;html=1;align=center;verticalAlign=middle;whiteSpace=wrap;rounded=0;" vertex="1" parent="1">
          <mxGeometry x="418.0000271267361" y="43.555569118923586" width="60" height="30" as="geometry" />
        </mxCell>
        <mxCell id="mTvKbT3Emb74TS9IKlDz-48" style="edgeStyle=orthogonalEdgeStyle;rounded=0;orthogonalLoop=1;jettySize=auto;html=1;exitX=0;exitY=0.5;exitDx=0;exitDy=0;entryX=1;entryY=0.5;entryDx=0;entryDy=0;" edge="1" parent="1" source="mTvKbT3Emb74TS9IKlDz-35" target="mTvKbT3Emb74TS9IKlDz-44">
          <mxGeometry relative="1" as="geometry" />
        </mxCell>
        <mxCell id="mTvKbT3Emb74TS9IKlDz-49" style="edgeStyle=orthogonalEdgeStyle;rounded=0;orthogonalLoop=1;jettySize=auto;html=1;exitX=0.5;exitY=1;exitDx=0;exitDy=0;entryX=0.5;entryY=0;entryDx=0;entryDy=0;" edge="1" parent="1" source="mTvKbT3Emb74TS9IKlDz-51" target="mTvKbT3Emb74TS9IKlDz-29">
          <mxGeometry relative="1" as="geometry" />
        </mxCell>
        <mxCell id="mTvKbT3Emb74TS9IKlDz-50" style="edgeStyle=orthogonalEdgeStyle;rounded=0;orthogonalLoop=1;jettySize=auto;html=1;exitX=1;exitY=0.5;exitDx=0;exitDy=0;" edge="1" parent="1" source="mTvKbT3Emb74TS9IKlDz-51">
          <mxGeometry relative="1" as="geometry">
            <mxPoint x="628.0000271267361" y="-356.4444308810764" as="targetPoint" />
            <Array as="points">
              <mxPoint x="828.0000271267361" y="-211.4444308810764" />
              <mxPoint x="828.0000271267361" y="-356.4444308810764" />
            </Array>
          </mxGeometry>
        </mxCell>
        <mxCell id="mTvKbT3Emb74TS9IKlDz-51" value="" style="rhombus;whiteSpace=wrap;html=1;" vertex="1" parent="1">
          <mxGeometry x="578.0000271267361" y="-236.4444308810764" width="100" height="50" as="geometry" />
        </mxCell>
        <mxCell id="mTvKbT3Emb74TS9IKlDz-52" value="1" style="text;html=1;align=center;verticalAlign=middle;whiteSpace=wrap;rounded=0;" vertex="1" parent="1">
          <mxGeometry x="608.0000271267361" y="-196.4444308810764" width="60" height="30" as="geometry" />
        </mxCell>
        <mxCell id="mTvKbT3Emb74TS9IKlDz-53" value="working" style="text;html=1;align=center;verticalAlign=middle;whiteSpace=wrap;rounded=0;" vertex="1" parent="1">
          <mxGeometry x="598.0000271267361" y="-226.4444308810764" width="60" height="30" as="geometry" />
        </mxCell>
        <mxCell id="mTvKbT3Emb74TS9IKlDz-54" value="0" style="text;html=1;align=center;verticalAlign=middle;whiteSpace=wrap;rounded=0;" vertex="1" parent="1">
          <mxGeometry x="648.0000271267361" y="-236.4444308810764" width="60" height="30" as="geometry" />
        </mxCell>
        <mxCell id="mTvKbT3Emb74TS9IKlDz-55" value="Text" style="text;html=1;whiteSpace=wrap;strokeColor=none;fillColor=none;align=center;verticalAlign=middle;rounded=0;" vertex="1" parent="1">
          <mxGeometry x="730" y="90" width="60" height="30" as="geometry" />
        </mxCell>
      </root>
    </mxGraphModel>
  </diagram>
</mxfile>
